HIERARCHY
ROOT Hips
{
	OFFSET	0	0	0
	CHANNELS 6  Xposition Yposition Zposition Xrotation Yrotation Zrotation
	JOINT Spine
	{
		OFFSET	0	6.43035	1.29592
		CHANNELS 3  Xrotation Yrotation Zrotation
		JOINT Spine1
		{
			OFFSET	0	11.0515	-1.97348
			CHANNELS 3  Xrotation Yrotation Zrotation
			JOINT Spine2
			{
				OFFSET	0	8.37743	0.897934
				CHANNELS 3  Xrotation Yrotation Zrotation
				JOINT Spine3
				{
					OFFSET	0	10.0253	2.97996
					CHANNELS 3  Xrotation Yrotation Zrotation
					JOINT Spine4
					{
						OFFSET	0	14.8406	-1.51958
						CHANNELS 3  Xrotation Yrotation Zrotation
						JOINT Neck
						{
							OFFSET	0	7.0848	-4.96331
							CHANNELS 3  Xrotation Yrotation Zrotation
							JOINT Head
							{
								OFFSET	0	8.50571	-2.54579
								CHANNELS 3  Xrotation Yrotation Zrotation
								End Site
								{
									OFFSET	0	17.7416	-0.858465
								}
							}
						}
					}
					JOINT LeftShoulder
					{
						OFFSET	-4.26272	18.0376	-8.50571
						CHANNELS 3  Xrotation Yrotation Zrotation
						JOINT LeftArm
						{
							OFFSET	-9.26857	-2.54579	3.26613
							CHANNELS 3  Xrotation Yrotation Zrotation
							JOINT LeftForeArm
							{
								OFFSET	-28.2392	-1.28889	2.01568
								CHANNELS 3  Xrotation Yrotation Zrotation
								JOINT LeftHand
								{
									OFFSET	-22.9751	-1.58771	1.63994
									CHANNELS 3  Xrotation Yrotation Zrotation
									End Site
									{
										OFFSET	-8.38477	-0.579434	0.598457
									}
								}
							}
						}
					}
					JOINT RightShoulder
					{
						OFFSET	4.26272	18.0376	-8.50571
						CHANNELS 3  Xrotation Yrotation Zrotation
						JOINT RightArm
						{
							OFFSET	9.26857	-2.54579	3.26613
							CHANNELS 3  Xrotation Yrotation Zrotation
							JOINT RightForeArm
							{
								OFFSET	28.2392	-1.28889	2.01568
								CHANNELS 3  Xrotation Yrotation Zrotation
								JOINT RightHand
								{
									OFFSET	22.9751	-1.58771	1.63994
									CHANNELS 3  Xrotation Yrotation Zrotation
									End Site
									{
										OFFSET	8.38477	-0.579434	0.598457
									}
								}
							}
						}
					}
				}
			}
		}
	}
	JOINT LeftUpLeg
	{
		OFFSET	-8.79432	-3.21518	-0.64796
		CHANNELS 3  Xrotation Yrotation Zrotation
		JOINT LeftLeg
		{
			OFFSET	-1.93242	-37.8649	-0.591911
			CHANNELS 3  Xrotation Yrotation Zrotation
			JOINT LeftFoot
			{
				OFFSET	-1.8889	-34.8184	2.99439
				CHANNELS 3  Xrotation Yrotation Zrotation
				JOINT LeftToeBase
				{
					OFFSET	0	-4.3392	-11.5249
					CHANNELS 3  Xrotation Yrotation Zrotation
					End Site
					{
						OFFSET	0	-1.73568	-6.94272
					}
				}
			}
		}
	}
	JOINT RightUpLeg
	{
		OFFSET	8.79432	-3.21518	-0.64796
		CHANNELS 3  Xrotation Yrotation Zrotation
		JOINT RightLeg
		{
			OFFSET	1.93242	-37.8649	-0.591911
			CHANNELS 3  Xrotation Yrotation Zrotation
			JOINT RightFoot
			{
				OFFSET	1.8889	-34.8184	2.99439
				CHANNELS 3  Xrotation Yrotation Zrotation
				JOINT RightToeBase
				{
					OFFSET	0	-4.3392	-11.5249
					CHANNELS 3  Xrotation Yrotation Zrotation
					End Site
					{
						OFFSET	0	-1.73568	-6.94272
					}
				}
			}
		}
	}
}
MOTION
Frames: 14
Frame Time: 0.020408
 0 -5.59411 3.22603 -0 0 -0 -0 0 -0 -0 0 -0 -0 0 -0 -0 0 -0 -0 0 -0 -0 0 -0 -0 0 -0 -0 0 -0 -0 0 -0 -0 0 -0 -0 0 -0 -0 0 -0 -0 0 -0 -0 0 -0 -0 0 -0 -0 0 -0 -0 0 -0 -0 0 -0 -0 0 -0 -0 0 -0 -0 0 -0 -0 0 -0 -0 0 -0
 217.199 64.4426 -268.737 71.8582 15.0385 51.7201 180 -179.999 170.18 140.066 -179.998 163.633 138.656 -179.995 163.633 149.151 -179.999 170.18 176.556 179.803 176.733 27.9406 -3.42002 16.1282 9.84719 -30.7592 6.39958 177.777 -157.403 175.182 43.1395 -6.65531 32.1789 17.9089 -25.2771 5.97853 -0 42.9338 -9.73125 171.391 -177.526 -163.418 46.4227 -10.6747 -26.2101 154.926 154.773 -167.083 -0 2.86168 36.8124 80.4297 28.638 -90.5482 125.973 -153.727 -169.459 26.6009 -6.1399 4.13052 1.71582 0 0 74.4338 127.577 -121.891 148.451 -169.313 179.924 173.93 -179.948 -168.555 179.286 180 -180
 217.276 64.3021 -268.513 71.4218 14.6897 51.5485 0.00119638 0.00696931 -9.74066 140.249 179.986 163.766 138.843 179.959 163.766 149.256 179.993 170.259 176.651 179.81 176.759 28.285 -4.29907 15.7742 9.91726 -31.0824 6.23117 177.308 -157.439 174.164 42.3502 -6.9148 32.5712 18.3113 -26.2538 6.45612 -0 42.8601 -9.68797 171.539 -177.498 -163.721 46.1808 -10.3215 -26.536 154.889 154.741 -166.857 -0 2.78581 37.0272 89.8783 28.3205 -90.2124 126.791 -169.754 -179.664 28.0585 -0.259988 4.0322 1.71415 0 0 74.152 127.792 -121.097 148.789 -169.391 179.785 175.389 -179.959 -168.554 179.289 180 -180
 217.048 63.8631 -267.946 69.822 13.7932 51.2519 179.999 -179.996 170.326 140.519 -179.991 163.876 139.075 -179.974 163.876 149.361 -179.996 170.326 176.925 179.827 176.78 29.0137 -5.0004 15.5019 10.1341 -31.3895 6.15988 176.802 -157.475 173.064 41.6282 -7.20399 32.6059 18.6264 -26.9183 6.73661 -0 42.7907 -9.62127 171.636 -177.678 -163.887 46.1964 -9.83241 -26.747 154.94 154.863 -166.692 -0 2.64867 37.3033 94.5152 27.8543 -90.3534 126.813 177.214 177.791 28.8861 -0.275675 3.93396 1.71424 0 0 74.294 127.42 -120.473 149.234 -169.494 179.794 176.932 179.996 -168.547 179.29 180 -180
 216.984 63.106 -266.588 67.0575 13.5532 51.1405 0.00233317 0.0135688 -9.75668 140.96 179.974 163.739 139.525 179.921 163.739 149.62 179.986 170.243 177.138 179.837 176.752 29.6199 -6.47672 14.7985 10.2376 -31.6754 5.81532 175.994 -157.506 171.301 41.4921 -7.58555 31.4285 18.7267 -27.3797 7.05869 -0 42.6712 -9.67685 171.82 -177.954 -164.214 46.4931 -9.57168 -27.2114 154.979 154.964 -166.625 -0 2.19401 37.8657 94.5464 27.801 -89.4193 125.696 170.743 179.79 30.3018 -0.679278 4.06015 1.71934 0 0 75.3121 126.369 -120.366 149.953 -169.477 179.857 179.279 -179.932 -168.536 179.292 180 -180
 217.14 62.7498 -266.434 65.7499 13.7825 50.7995 0.0010109 0.00589813 -9.72565 141.173 179.989 163.791 139.741 179.966 163.791 149.798 179.994 170.274 177.132 179.838 176.762 29.7281 -7.80081 14.4004 10.2279 -32.2976 5.56522 175.717 -157.992 170.702 41.5176 -7.55722 30.612 18.865 -27.8416 7.3621 -0 42.5784 -9.65555 172.052 -178.039 -164.667 46.5243 -9.74394 -27.5616 154.991 155.133 -166.819 -0 1.73057 38.3056 95.7191 27.8374 -88.7287 125.832 170.294 -179.476 27.4673 -0.278748 4.12546 1.71744 0 0 76.5332 125.297 -121.122 150.918 -169.53 -179.922 1.71795 -0.0446343 11.5057 179.293 180 -180
 217.492 62.7143 -266.241 65.1075 14.2774 51.0179 0.00372544 0.0216281 -9.77329 141.332 179.958 163.711 139.926 179.874 163.711 149.924 179.978 170.227 177.128 179.837 176.746 29.9775 -9.41902 13.6156 10.2023 -32.5547 5.12898 175.672 -157.688 170.6 41.6701 -7.41871 30.215 18.9134 -28.067 7.35897 -0 42.4927 -9.65168 172.256 -177.992 -165.082 46.4555 -9.98758 -28.0735 154.991 155.145 -166.91 -0 1.33201 38.8673 97.9062 27.4312 -88.1667 125.216 170.067 -179.557 26.0681 -0.0229436 4.28481 1.71793 0 0 77.4589 125.036 -121.732 151.284 -169.588 179.999 1.41234 0.0399807 11.4463 179.292 180 -180
 217.571 62.6072 -265.95 64.4877 14.7955 51.4725 0.00106588 0.00611074 -9.89436 141.466 179.988 163.509 140.039 179.964 163.509 150.006 179.994 170.106 177.201 179.839 176.706 30.3863 -10.8177 12.8508 10.2331 -32.6058 4.72953 175.648 -157.702 170.546 41.8478 -7.14771 29.8866 18.9519 -28.2874 7.46227 -0 42.4134 -9.65103 172.24 -177.956 -165.056 46.7935 -9.70558 -28.3534 155.009 155.097 -167.03 -0 0.889544 39.3053 99.4 27.1694 -88.0838 124.508 170.189 -179.932 25.4373 -0.00533688 4.47808 1.7193 0 0 78.6305 124.942 -122.645 151.597 -169.556 179.865 1.63775 0.0260244 11.419 179.291 180 -180
 217.631 62.6855 -265.924 64.1164 15.1926 51.9605 9.26471e-05 0.000526717 -9.97603 141.478 179.999 163.373 140.089 179.997 163.373 150.151 179.999 170.024 176.889 179.819 176.68 29.7611 -12.2579 11.9699 9.91315 -32.6564 4.18682 175.674 -157.573 170.601 42.0735 -6.95216 29.7499 19.2537 -28.8239 7.82722 -0 42.3577 -9.44771 172.328 -177.967 -165.23 47.141 -9.36333 -28.5321 155.152 155.021 -167.137 -0 0.245539 39.4517 100.757 27.0567 -88.2865 123.904 170.794 -179.887 24.2392 -0.0118636 4.83935 1.72173 0 0 80.7779 124.652 -124.587 152.338 -169.484 -179.986 4.37531 -0.0325109 11.4772 179.292 180 -180
 217.62 62.7765 -265.883 63.9594 15.4262 52.2323 180 -179.998 170.005 141.484 -179.995 163.341 140.104 -179.986 163.341 150.192 -179.998 170.005 176.805 179.814 176.673 29.5976 -12.7152 11.6729 9.8234 -32.6543 4.01342 175.734 -157.58 170.732 42.2603 -6.469 29.7811 19.475 -29.1916 7.96104 -0 42.3229 -9.28519 172.392 -178.047 -165.346 47.2416 -9.32828 -28.7704 155.523 155.165 -167.388 -0 -0.521679 39.6117 101.785 26.9609 -88.8233 122.976 171.56 -179.894 23.5473 -0.0263521 5.21483 1.72449 0 0 82.9145 124.703 -126.3 152.522 -169.491 -179.849 6.39138 -0.0150511 11.4707 179.292 180 -180
 217.651 62.8532 -265.679 64.0261 15.246 52.3667 0.00179254 0.0102469 -9.92265 141.533 179.98 163.462 140.193 179.94 163.462 150.298 179.99 170.077 176.645 179.806 176.698 29.2628 -13.6266 11.093 9.64808 -32.6938 3.678 175.93 -157.474 171.16 42.5615 -6.0403 29.7386 19.5685 -29.3328 8.01963 -0 42.2866 -9.2085 172.48 -178.087 -165.515 47.5573 -9.55902 -29.1333 156.052 155.414 -167.699 -0 -1.23637 39.7531 102.998 25.7214 -89.6868 122.539 172.452 -179.792 21.786 -0.0108724 5.60676 1.72606 0 0 84.5179 125.261 -127.352 152.468 -169.554 -179.818 7.15792 0.0396507 11.4528 179.292 180 -180
 217.92 62.6508 -266.221 64.2676 14.5741 52.1475 0.00161647 0.00940635 -9.75096 141.545 179.982 163.748 140.233 179.945 163.748 150.392 179.991 170.249 176.446 179.798 176.756 28.845 -14.6043 10.4296 9.44182 -32.7142 3.30338 176.074 -157.812 171.479 42.6632 -5.6676 29.4763 19.7198 -29.4077 8.29995 -0 42.2794 -9.02586 172.393 -177.772 -165.387 47.4569 -9.55885 -29.3282 156.394 155.503 -168.046 -0 -1.81072 39.8918 103.122 24.5423 -89.9691 122.053 173.492 -179.729 19.403 0.000835313 6.01369 1.72513 0 0 86.3785 125.732 -128.688 152.529 -169.515 -179.949 8.17347 0.00120911 11.4623 179.289 180 -180
 217.578 62.8288 -266.464 64.4068 14.8347 52.1184 0.00143946 0.00840135 -9.72245 141.512 179.984 163.796 140.197 179.951 163.796 150.365 179.992 170.278 176.45 179.799 176.765 28.9637 -15.0738 10.0416 9.43727 -32.5361 3.11688 176.344 -157.26 172.062 43.0336 -5.37576 29.848 19.8929 -29.5895 8.26055 -0 42.2634 -8.79465 172.454 -177.491 -165.548 47.0671 -9.45415 -29.9337 156.722 155.533 -168.22 -0 -2.33702 40.2078 103.037 24.1114 -89.6099 120.91 174.257 -179.722 18.8169 0.0046981 6.31145 1.72778 0 0 87.3648 126.49 -129.578 152.326 -169.669 -179.985 7.7051 0.138665 11.4426 179.288 180 -180
 217.501 62.856 -266.001 64.3752 15.2426 52.2678 180 -179.999 170.22 141.518 -179.999 163.7 140.157 -179.996 163.7 150.267 -179.999 170.22 176.693 179.812 176.745 29.6707 -15.0876 10.0257 9.659 -32.331 3.15334 176.142 -157.538 171.624 43.2959 -5.24114 29.4498 20.1356 -29.9202 8.6863 -0 42.2717 -8.55564 172.197 -177.625 -165.019 46.8819 -9.0758 -30.4719 156.997 155.704 -168.259 -0 -2.78446 40.3645 102.669 23.852 -89.4903 120.145 174.861 -179.838 18.4964 0.0220596 6.50199 1.73219 0 0 88.3008 127.223 -129.947 152.027 -169.501 -179.805 7.97833 -0.0431479 11.4989 179.286 180 -180
